{"title":"Bleach 181 (Divx) [Eng Sub] [1337x] By {Noir}","uid":4313102,"size":187949706,"categoryP":"video","categoryS":"tv_shows","magnet":"?xt=urn:btih:4b1cf0026d2081957b7ac728b978f6bbe71c59a7&amp;dn=Bleach+181+%28Divx%29+%5BEng+Sub%5D+%5B1337x%5D+By+%7BNoir%7D&amp;tr=udp%3A%2F%2Ftracker.openbittorrent.com%3A80&amp;tr=udp%3A%2F%2Fopen.demonii.com%3A1337&amp;tr=udp%3A%2F%2Ftracker.coppersurfer.tk%3A6969&amp;tr=udp%3A%2F%2Fexodus.desync.com%3A6969","seeders":0,"leechers":0,"uploader":"INoirI","files":3,"time":1216919816,"description":"  _____________________________________________________________________________\n                 ??????\n                 ???????         ????\n                 ????????      ??????\n                 ?????????     ???????????\n                   ????????    ???????????? ?????????????\n                   ?????????   ???????????????????????????\n                   ??????????  ???????????????????????????\n                   ??????????? ?????????????????????????????\n                   ?????????????????????????????????????????\n                   ?????????????????????????????????????????\n                   ?????????????????????????????????????????\n                   ?????????????????????????????????????????\n                   ?????????????????????????????????????????\n                  ???????? ?????????????????????????????????\n                 ?????????  ????????????????????????????\n                 ?????????   ?????????????????  ????????\n                 ?????????    ????????????????  ????????\n                 ?????????    ??????????????    ????????\n                 ?????????     ?????\n  _____________________________________________________________________________\n\n\n\n*******************************************************************************\n                                  Bleach (181)\n*******************************************************************************\n\n-------------------------------------------------------------------------------\n                              General Information\n-------------------------------------------------------------------------------\nType                             : Anime\nFormat                           : AVI\nFormat/Info                      : Audio Video Interleave\nFile size                        : 179 MiB\nDuration                         : 24mn 1s\nGenre                            : Action | Adventure | Fantasy \nIMDB Link                        : http://www.imdb.com/title/tt0434665/ \nRating                           : 9.0/10 \nSubtitles                        : English\n\n\nVideo\nFormat                           : MPEG-4 Visual\nFormat settings, BVOP            : Yes\nFormat settings, QPel            : No\nFormat settings, GMC             : No warppoints\nFormat settings, Matrix          : Default\nMuxing mode                      : Packet Bitstream\nCodec ID                         : DX50\nCodec ID/Hint                    : DivX 5\nDuration                         : 24mn 1s\nBit rate                         : 905 Kbps\nWidth                            : 624 pixels\nHeight                           : 336 pixels\nDisplay aspect ratio             : 1.857\nFrame rate                       : 23.976 fps\nResolution                       : 8 bits\nColorimetry                      : 4:2:0\nScan type                        : Progressive\nBits/(Pixel*Frame)               : 0.180\nStream size                      : 156 MiB (87%)\n\nAudio\nFormat                           : MPEG Audio\nFormat version                   : Version 1\nFormat profile                   : Layer 3\nCodec ID                         : 55\nCodec ID/Hint                    : MP3\nDuration                         : 24mn 1s\nBit rate mode                    : Constant\nBit rate                         : 128 Kbps\nMinimum bit rate                 : 128 Kbps\nChannel(s)                       : 2 channels\nSampling rate                    : 48.0 KHz\nResolution                       : 16 bits\nStream size                      : 22.0 MiB (12%)\nAlignment                        : Aligned on interleaves\nInterleave, duration             : 42 ms (1.00 video frame)\nInterleave, preload duration     : 504 ms\nWriting library                  : LAME3.97 \nEncoding settings                : CBR\n\n-------------------------------------------------------------------------------\n                               Description\n-------------------------------------------------------------------------------\nKurosaki Ichigo is a 15 year old student, with the ability to see ghosts. \nHis life was forever changed when he met Kuchiki Rukia, a Death God, \nwho is charged with sending lost souls to the afterlife, known as Soul \nSociety. \n\nWhilst saving Ichigo from the attack of a malevolent ghost known as a \nHollow, Rukia sustained serious injuries. Unable to finish the battle, \nshe offers to share her powers, and responsibilities, with Ichigo.. \n\n-------------------------------------------------------------------------------\n                               Post Information\n-------------------------------------------------------------------------------\nPosted by............: Noir\nPosted on............: 7/24/2008\n","torrent":{"xt":"urn:btih:4b1cf0026d2081957b7ac728b978f6bbe71c59a7","amp;dn":"Bleach+181+%28Divx%29+%5BEng+Sub%5D+%5B1337x%5D+By+%7BNoir%7D","amp;tr":["udp%3A%2F%2Ftracker.openbittorrent.com%3A80","udp%3A%2F%2Fopen.demonii.com%3A1337","udp%3A%2F%2Ftracker.coppersurfer.tk%3A6969","udp%3A%2F%2Fexodus.desync.com%3A6969"],"infoHash":"4b1cf0026d2081957b7ac728b978f6bbe71c59a7","infoHashBuffer":{"type":"Buffer","data":[75,28,240,2,109,32,129,149,123,122,199,40,185,120,246,187,231,28,89,167]},"announce":[],"urlList":[]}}